ISO-10303-21;
HEADER;
FILE_DESCRIPTION(('FreeCAD Model'),'2;1');
FILE_NAME('Open CASCADE Shape Model','2025-05-01T11:01:09',(
    'kicad StepUp'),('ksu MCAD'),'Open CASCADE STEP processor 7.7',
  'FreeCAD','Unknown');
FILE_SCHEMA(('AUTOMOTIVE_DESIGN { 1 0 10303 214 1 1 1 1 }'));
ENDSEC;
DATA;
#1 = APPLICATION_PROTOCOL_DEFINITION('international standard',
  'automotive_design',2000,#2);
#2 = APPLICATION_CONTEXT(
  'core data for automotive mechanical design processes');
#3 = SHAPE_DEFINITION_REPRESENTATION(#4,#10);
#4 = PRODUCT_DEFINITION_SHAPE('','',#5);
#5 = PRODUCT_DEFINITION('design','',#6,#9);
#6 = PRODUCT_DEFINITION_FORMATION('','',#7);
#7 = PRODUCT('Body','Body','',(#8));
#8 = PRODUCT_CONTEXT('',#2,'mechanical');
#9 = PRODUCT_DEFINITION_CONTEXT('part definition',#2,'design');
#10 = ADVANCED_BREP_SHAPE_REPRESENTATION('',(#11,#15),#210);
#11 = AXIS2_PLACEMENT_3D('',#12,#13,#14);
#12 = CARTESIAN_POINT('',(0.,0.,0.));
#13 = DIRECTION('',(0.,0.,1.));
#14 = DIRECTION('',(1.,0.,-0.));
#15 = MANIFOLD_SOLID_BREP('',#16);
#16 = CLOSED_SHELL('',(#17,#57,#88,#123,#147,#164,#176,#201));
#17 = ADVANCED_FACE('',(#18),#52,.F.);
#18 = FACE_BOUND('',#19,.F.);
#19 = EDGE_LOOP('',(#20,#30,#38,#46));
#20 = ORIENTED_EDGE('',*,*,#21,.F.);
#21 = EDGE_CURVE('',#22,#24,#26,.T.);
#22 = VERTEX_POINT('',#23);
#23 = CARTESIAN_POINT('',(8.881784197001E-16,-7.62,1.5875));
#24 = VERTEX_POINT('',#25);
#25 = CARTESIAN_POINT('',(8.881784197001E-16,-7.62,9.4615));
#26 = LINE('',#27,#28);
#27 = CARTESIAN_POINT('',(8.881784197001E-16,-7.62,1.5875));
#28 = VECTOR('',#29,1.);
#29 = DIRECTION('',(0.,0.,1.));
#30 = ORIENTED_EDGE('',*,*,#31,.T.);
#31 = EDGE_CURVE('',#22,#32,#34,.T.);
#32 = VERTEX_POINT('',#33);
#33 = CARTESIAN_POINT('',(-4.440892098501E-16,2.794,1.5875));
#34 = LINE('',#35,#36);
#35 = CARTESIAN_POINT('',(8.881784197001E-16,-7.62,1.5875));
#36 = VECTOR('',#37,1.);
#37 = DIRECTION('',(-1.2E-16,1.,0.));
#38 = ORIENTED_EDGE('',*,*,#39,.T.);
#39 = EDGE_CURVE('',#32,#40,#42,.T.);
#40 = VERTEX_POINT('',#41);
#41 = CARTESIAN_POINT('',(-4.440892098501E-16,2.794,9.4615));
#42 = LINE('',#43,#44);
#43 = CARTESIAN_POINT('',(0.,2.794,1.5875));
#44 = VECTOR('',#45,1.);
#45 = DIRECTION('',(0.,0.,1.));
#46 = ORIENTED_EDGE('',*,*,#47,.F.);
#47 = EDGE_CURVE('',#24,#40,#48,.T.);
#48 = LINE('',#49,#50);
#49 = CARTESIAN_POINT('',(8.881784197001E-16,-7.62,9.4615));
#50 = VECTOR('',#51,1.);
#51 = DIRECTION('',(-1.2E-16,1.,0.));
#52 = PLANE('',#53);
#53 = AXIS2_PLACEMENT_3D('',#54,#55,#56);
#54 = CARTESIAN_POINT('',(8.881784197001E-16,-7.62,1.5875));
#55 = DIRECTION('',(1.,1.2E-16,0.));
#56 = DIRECTION('',(0.,0.,1.));
#57 = ADVANCED_FACE('',(#58),#83,.F.);
#58 = FACE_BOUND('',#59,.F.);
#59 = EDGE_LOOP('',(#60,#68,#69,#77));
#60 = ORIENTED_EDGE('',*,*,#61,.F.);
#61 = EDGE_CURVE('',#22,#62,#64,.T.);
#62 = VERTEX_POINT('',#63);
#63 = CARTESIAN_POINT('',(11.176,-7.62,1.5875));
#64 = LINE('',#65,#66);
#65 = CARTESIAN_POINT('',(8.881784197001E-16,-7.62,1.5875));
#66 = VECTOR('',#67,1.);
#67 = DIRECTION('',(1.,1.2E-16,0.));
#68 = ORIENTED_EDGE('',*,*,#21,.T.);
#69 = ORIENTED_EDGE('',*,*,#70,.T.);
#70 = EDGE_CURVE('',#24,#71,#73,.T.);
#71 = VERTEX_POINT('',#72);
#72 = CARTESIAN_POINT('',(11.176,-7.62,9.4615));
#73 = LINE('',#74,#75);
#74 = CARTESIAN_POINT('',(8.881784197001E-16,-7.62,9.4615));
#75 = VECTOR('',#76,1.);
#76 = DIRECTION('',(1.,1.2E-16,0.));
#77 = ORIENTED_EDGE('',*,*,#78,.F.);
#78 = EDGE_CURVE('',#62,#71,#79,.T.);
#79 = LINE('',#80,#81);
#80 = CARTESIAN_POINT('',(11.176,-7.62,1.5875));
#81 = VECTOR('',#82,1.);
#82 = DIRECTION('',(0.,0.,1.));
#83 = PLANE('',#84);
#84 = AXIS2_PLACEMENT_3D('',#85,#86,#87);
#85 = CARTESIAN_POINT('',(8.881784197001E-16,-7.62,1.5875));
#86 = DIRECTION('',(-1.2E-16,1.,0.));
#87 = DIRECTION('',(0.,0.,1.));
#88 = ADVANCED_FACE('',(#89,#107),#118,.T.);
#89 = FACE_BOUND('',#90,.T.);
#90 = EDGE_LOOP('',(#91,#92,#93,#101));
#91 = ORIENTED_EDGE('',*,*,#47,.F.);
#92 = ORIENTED_EDGE('',*,*,#70,.T.);
#93 = ORIENTED_EDGE('',*,*,#94,.T.);
#94 = EDGE_CURVE('',#71,#95,#97,.T.);
#95 = VERTEX_POINT('',#96);
#96 = CARTESIAN_POINT('',(11.176,2.794,9.4615));
#97 = LINE('',#98,#99);
#98 = CARTESIAN_POINT('',(11.176,-7.62,9.4615));
#99 = VECTOR('',#100,1.);
#100 = DIRECTION('',(-1.2E-16,1.,0.));
#101 = ORIENTED_EDGE('',*,*,#102,.F.);
#102 = EDGE_CURVE('',#40,#95,#103,.T.);
#103 = LINE('',#104,#105);
#104 = CARTESIAN_POINT('',(0.,2.794,9.4615));
#105 = VECTOR('',#106,1.);
#106 = DIRECTION('',(1.,1.2E-16,0.));
#107 = FACE_BOUND('',#108,.T.);
#108 = EDGE_LOOP('',(#109));
#109 = ORIENTED_EDGE('',*,*,#110,.F.);
#110 = EDGE_CURVE('',#111,#111,#113,.T.);
#111 = VERTEX_POINT('',#112);
#112 = CARTESIAN_POINT('',(5.588,0.889,9.4615));
#113 = CIRCLE('',#114,3.302);
#114 = AXIS2_PLACEMENT_3D('',#115,#116,#117);
#115 = CARTESIAN_POINT('',(5.588,-2.413,9.4615));
#116 = DIRECTION('',(0.,-0.,1.));
#117 = DIRECTION('',(5.88E-15,1.,0.));
#118 = PLANE('',#119);
#119 = AXIS2_PLACEMENT_3D('',#120,#121,#122);
#120 = CARTESIAN_POINT('',(8.881784197001E-16,-7.62,9.4615));
#121 = DIRECTION('',(0.,0.,1.));
#122 = DIRECTION('',(1.,1.2E-16,0.));
#123 = ADVANCED_FACE('',(#124),#142,.T.);
#124 = FACE_BOUND('',#125,.T.);
#125 = EDGE_LOOP('',(#126,#134,#135,#136));
#126 = ORIENTED_EDGE('',*,*,#127,.F.);
#127 = EDGE_CURVE('',#32,#128,#130,.T.);
#128 = VERTEX_POINT('',#129);
#129 = CARTESIAN_POINT('',(11.176,2.794,1.5875));
#130 = LINE('',#131,#132);
#131 = CARTESIAN_POINT('',(0.,2.794,1.5875));
#132 = VECTOR('',#133,1.);
#133 = DIRECTION('',(1.,1.2E-16,0.));
#134 = ORIENTED_EDGE('',*,*,#39,.T.);
#135 = ORIENTED_EDGE('',*,*,#102,.T.);
#136 = ORIENTED_EDGE('',*,*,#137,.F.);
#137 = EDGE_CURVE('',#128,#95,#138,.T.);
#138 = LINE('',#139,#140);
#139 = CARTESIAN_POINT('',(11.176,2.794,1.5875));
#140 = VECTOR('',#141,1.);
#141 = DIRECTION('',(0.,0.,1.));
#142 = PLANE('',#143);
#143 = AXIS2_PLACEMENT_3D('',#144,#145,#146);
#144 = CARTESIAN_POINT('',(0.,2.794,1.5875));
#145 = DIRECTION('',(-1.2E-16,1.,0.));
#146 = DIRECTION('',(0.,0.,1.));
#147 = ADVANCED_FACE('',(#148),#159,.F.);
#148 = FACE_BOUND('',#149,.F.);
#149 = EDGE_LOOP('',(#150,#151,#152,#158));
#150 = ORIENTED_EDGE('',*,*,#31,.F.);
#151 = ORIENTED_EDGE('',*,*,#61,.T.);
#152 = ORIENTED_EDGE('',*,*,#153,.T.);
#153 = EDGE_CURVE('',#62,#128,#154,.T.);
#154 = LINE('',#155,#156);
#155 = CARTESIAN_POINT('',(11.176,-7.62,1.5875));
#156 = VECTOR('',#157,1.);
#157 = DIRECTION('',(-1.2E-16,1.,0.));
#158 = ORIENTED_EDGE('',*,*,#127,.F.);
#159 = PLANE('',#160);
#160 = AXIS2_PLACEMENT_3D('',#161,#162,#163);
#161 = CARTESIAN_POINT('',(8.881784197001E-16,-7.62,1.5875));
#162 = DIRECTION('',(0.,0.,1.));
#163 = DIRECTION('',(1.,1.2E-16,0.));
#164 = ADVANCED_FACE('',(#165),#171,.T.);
#165 = FACE_BOUND('',#166,.T.);
#166 = EDGE_LOOP('',(#167,#168,#169,#170));
#167 = ORIENTED_EDGE('',*,*,#78,.F.);
#168 = ORIENTED_EDGE('',*,*,#153,.T.);
#169 = ORIENTED_EDGE('',*,*,#137,.T.);
#170 = ORIENTED_EDGE('',*,*,#94,.F.);
#171 = PLANE('',#172);
#172 = AXIS2_PLACEMENT_3D('',#173,#174,#175);
#173 = CARTESIAN_POINT('',(11.176,-7.62,1.5875));
#174 = DIRECTION('',(1.,1.2E-16,0.));
#175 = DIRECTION('',(0.,0.,1.));
#176 = ADVANCED_FACE('',(#177),#196,.T.);
#177 = FACE_BOUND('',#178,.F.);
#178 = EDGE_LOOP('',(#179,#187,#194,#195));
#179 = ORIENTED_EDGE('',*,*,#180,.T.);
#180 = EDGE_CURVE('',#111,#181,#183,.T.);
#181 = VERTEX_POINT('',#182);
#182 = CARTESIAN_POINT('',(5.588,0.889,22.1615));
#183 = LINE('',#184,#185);
#184 = CARTESIAN_POINT('',(5.588,0.889,9.4615));
#185 = VECTOR('',#186,1.);
#186 = DIRECTION('',(0.,0.,1.));
#187 = ORIENTED_EDGE('',*,*,#188,.T.);
#188 = EDGE_CURVE('',#181,#181,#189,.T.);
#189 = CIRCLE('',#190,3.302);
#190 = AXIS2_PLACEMENT_3D('',#191,#192,#193);
#191 = CARTESIAN_POINT('',(5.588,-2.413,22.1615));
#192 = DIRECTION('',(0.,-0.,1.));
#193 = DIRECTION('',(5.88E-15,1.,0.));
#194 = ORIENTED_EDGE('',*,*,#180,.F.);
#195 = ORIENTED_EDGE('',*,*,#110,.F.);
#196 = CYLINDRICAL_SURFACE('',#197,3.302);
#197 = AXIS2_PLACEMENT_3D('',#198,#199,#200);
#198 = CARTESIAN_POINT('',(5.588,-2.413,9.4615));
#199 = DIRECTION('',(0.,-0.,-1.));
#200 = DIRECTION('',(5.88E-15,1.,0.));
#201 = ADVANCED_FACE('',(#202),#205,.T.);
#202 = FACE_BOUND('',#203,.F.);
#203 = EDGE_LOOP('',(#204));
#204 = ORIENTED_EDGE('',*,*,#188,.F.);
#205 = PLANE('',#206);
#206 = AXIS2_PLACEMENT_3D('',#207,#208,#209);
#207 = CARTESIAN_POINT('',(5.588,-2.413,22.1615));
#208 = DIRECTION('',(0.,0.,1.));
#209 = DIRECTION('',(5.88E-15,1.,0.));
#210 = ( GEOMETRIC_REPRESENTATION_CONTEXT(3) 
GLOBAL_UNCERTAINTY_ASSIGNED_CONTEXT((#214)) GLOBAL_UNIT_ASSIGNED_CONTEXT
((#211,#212,#213)) REPRESENTATION_CONTEXT('Context #1',
  '3D Context with UNIT and UNCERTAINTY') );
#211 = ( LENGTH_UNIT() NAMED_UNIT(*) SI_UNIT(.MILLI.,.METRE.) );
#212 = ( NAMED_UNIT(*) PLANE_ANGLE_UNIT() SI_UNIT($,.RADIAN.) );
#213 = ( NAMED_UNIT(*) SI_UNIT($,.STERADIAN.) SOLID_ANGLE_UNIT() );
#214 = UNCERTAINTY_MEASURE_WITH_UNIT(LENGTH_MEASURE(1.E-07),#211,
  'distance_accuracy_value','confusion accuracy');
#215 = PRODUCT_RELATED_PRODUCT_CATEGORY('part',$,(#7));
#216 = MECHANICAL_DESIGN_GEOMETRIC_PRESENTATION_REPRESENTATION('',(#217)
  ,#210);
#217 = STYLED_ITEM('color',(#218),#15);
#218 = PRESENTATION_STYLE_ASSIGNMENT((#219,#225));
#219 = SURFACE_STYLE_USAGE(.BOTH.,#220);
#220 = SURFACE_SIDE_STYLE('',(#221));
#221 = SURFACE_STYLE_FILL_AREA(#222);
#222 = FILL_AREA_STYLE('',(#223));
#223 = FILL_AREA_STYLE_COLOUR('',#224);
#224 = COLOUR_RGB('',0.298000002942,0.298000002942,0.298000002942);
#225 = CURVE_STYLE('',#226,POSITIVE_LENGTH_MEASURE(0.1),#227);
#226 = DRAUGHTING_PRE_DEFINED_CURVE_FONT('continuous');
#227 = COLOUR_RGB('',9.803921802644E-02,9.803921802644E-02,
  9.803921802644E-02);
ENDSEC;
END-ISO-10303-21;
